<svg xmlns="http://www.w3.org/2000/svg" xmlns:xlink="http://www.w3.org/1999/xlink" width="800" height="1200"
     viewBox="0 0 800 1200">
    <g>
        <g transform="scale(1.8 1.8) translate(-170, -260)" style="fill:#000000">
            <svg fill="#000000" xmlns="http://www.w3.org/2000/svg" xmlns:xlink="http://www.w3.org/1999/xlink" version="1.1" x="0px" y="0px" viewBox="0 0 128 128" style="enable-background:new 0 0 128 128;" xml:space="preserve"><style type="text/css">
	.st0{display:none;}
	.st1{display:inline;}
	.st2{fill:none;stroke:#000000;stroke-width:0.1;stroke-miterlimit:10;}
</style>
	<g class="st0">
		<g class="st1"><rect class="st2" width="128" height="128"></rect>
            <line class="st2" x1="0" y1="124" x2="128" y2="124"></line>
            <line class="st2" x1="0" y1="120" x2="128" y2="120"></line>
            <line class="st2" x1="0" y1="116" x2="128" y2="116"></line>
            <line class="st2" x1="0" y1="112" x2="128" y2="112"></line>
            <line class="st2" x1="0" y1="108" x2="128" y2="108"></line>
            <line class="st2" x1="0" y1="104" x2="128" y2="104"></line>
            <line class="st2" x1="0" y1="100" x2="128" y2="100"></line>
            <line class="st2" x1="0" y1="96" x2="128" y2="96"></line>
            <line class="st2" x1="0" y1="92" x2="128" y2="92"></line>
            <line class="st2" x1="0" y1="88" x2="128" y2="88"></line>
            <line class="st2" x1="0" y1="84" x2="128" y2="84"></line>
            <line class="st2" x1="0" y1="80" x2="128" y2="80"></line>
            <line class="st2" x1="0" y1="76" x2="128" y2="76"></line>
            <line class="st2" x1="0" y1="72" x2="128" y2="72"></line>
            <line class="st2" x1="0" y1="68" x2="128" y2="68"></line>
            <line class="st2" x1="0" y1="64" x2="128" y2="64"></line>
            <line class="st2" x1="0" y1="60" x2="128" y2="60"></line>
            <line class="st2" x1="0" y1="56" x2="128" y2="56"></line>
            <line class="st2" x1="0" y1="52" x2="128" y2="52"></line>
            <line class="st2" x1="0" y1="48" x2="128" y2="48"></line>
            <line class="st2" x1="0" y1="44" x2="128" y2="44"></line>
            <line class="st2" x1="0" y1="40" x2="128" y2="40"></line>
            <line class="st2" x1="0" y1="36" x2="128" y2="36"></line>
            <line class="st2" x1="0" y1="32" x2="128" y2="32"></line>
            <line class="st2" x1="0" y1="28" x2="128" y2="28"></line>
            <line class="st2" x1="0" y1="24" x2="128" y2="24"></line>
            <line class="st2" x1="0" y1="20" x2="128" y2="20"></line>
            <line class="st2" x1="0" y1="16" x2="128" y2="16"></line>
            <line class="st2" x1="0" y1="12" x2="128" y2="12"></line>
            <line class="st2" x1="0" y1="8" x2="128" y2="8"></line>
            <line class="st2" x1="0" y1="4" x2="128" y2="4"></line>
            <line class="st2" x1="124" y1="0" x2="124" y2="128"></line>
            <line class="st2" x1="120" y1="0" x2="120" y2="128"></line>
            <line class="st2" x1="116" y1="0" x2="116" y2="128"></line>
            <line class="st2" x1="112" y1="0" x2="112" y2="128"></line>
            <line class="st2" x1="108" y1="0" x2="108" y2="128"></line>
            <line class="st2" x1="104" y1="0" x2="104" y2="128"></line>
            <line class="st2" x1="100" y1="0" x2="100" y2="128"></line>
            <line class="st2" x1="96" y1="0" x2="96" y2="128"></line>
            <line class="st2" x1="92" y1="0" x2="92" y2="128"></line>
            <line class="st2" x1="88" y1="0" x2="88" y2="128"></line>
            <line class="st2" x1="84" y1="0" x2="84" y2="128"></line>
            <line class="st2" x1="80" y1="0" x2="80" y2="128"></line>
            <line class="st2" x1="76" y1="0" x2="76" y2="128"></line>
            <line class="st2" x1="72" y1="0" x2="72" y2="128"></line>
            <line class="st2" x1="68" y1="0" x2="68" y2="128"></line>
            <line class="st2" x1="64" y1="0" x2="64" y2="128"></line>
            <line class="st2" x1="60" y1="0" x2="60" y2="128"></line>
            <line class="st2" x1="56" y1="0" x2="56" y2="128"></line>
            <line class="st2" x1="52" y1="0" x2="52" y2="128"></line>
            <line class="st2" x1="48" y1="0" x2="48" y2="128"></line>
            <line class="st2" x1="44" y1="0" x2="44" y2="128"></line>
            <line class="st2" x1="40" y1="0" x2="40" y2="128"></line>
            <line class="st2" x1="36" y1="0" x2="36" y2="128"></line>
            <line class="st2" x1="32" y1="0" x2="32" y2="128"></line>
            <line class="st2" x1="28" y1="0" x2="28" y2="128"></line>
            <line class="st2" x1="24" y1="0" x2="24" y2="128"></line>
            <line class="st2" x1="20" y1="0" x2="20" y2="128"></line>
            <line class="st2" x1="16" y1="0" x2="16" y2="128"></line>
            <line class="st2" x1="12" y1="0" x2="12" y2="128"></line>
            <line class="st2" x1="8" y1="0" x2="8" y2="128"></line>
            <line class="st2" x1="4" y1="0" x2="4" y2="128"></line></g></g><g><g><path d="M80.2,96.1H47.8c-3.8,0-7-3.1-7-7V46.7c0-3.8,3.1-7,7-7h32.5c3.8,0,7,3.1,7,7v42.4C87.2,92.9,84.1,96.1,80.2,96.1z     M47.8,42.7c-2.2,0-4,1.8-4,4v42.4c0,2.2,1.8,4,4,4h32.5c2.2,0,4-1.8,4-4V46.7c0-2.2-1.8-4-4-4H47.8z"></path><path
                        d="M71.2,42.7H56.8V35c0-2,1.6-3.6,3.6-3.6h7.2c2,0,3.6,1.6,3.6,3.6V42.7z M59.8,39.7h8.4V35c0-0.3-0.3-0.6-0.6-0.6h-7.2    c-0.3,0-0.6,0.3-0.6,0.6V39.7z"></path><path
                        d="M66.9,33.5c-0.8,0-1.5-0.7-1.5-1.5V20.4h11.7v-2.9H65.9c-1.9,0-3.4,1.5-3.4,3.4V32c0,0.8-0.7,1.5-1.5,1.5    s-1.5-0.7-1.5-1.5V20.9c0-3.5,2.9-6.4,6.4-6.4h14.3v8.9H68.4V32C68.4,32.9,67.8,33.5,66.9,33.5z"></path><path
                        d="M75.3,110.9H65.1c-3,0-5.5-2.5-5.5-5.5V95.3c0-0.8,0.7-1.5,1.5-1.5s1.5,0.7,1.5,1.5v10.1c0,1.4,1.1,2.5,2.5,2.5h10.2    c0.5,0,0.9-0.4,0.9-0.9s-0.4-0.9-0.9-0.9H64.5V95.3c0-0.8,0.7-1.5,1.5-1.5s1.5,0.7,1.5,1.5v7.7h7.8c2.2,0,3.9,1.8,3.9,3.9    S77.4,110.9,75.3,110.9z"></path><path
                        d="M78.7,113.5c-2.1,0-4.1-1-5.4-2.7c-0.5-0.7-0.4-1.6,0.3-2.1c0.7-0.5,1.6-0.4,2.1,0.3c0.8,1.1,2.1,1.6,3.4,1.5    c2.1-0.2,3.6-2.1,3.3-4.2c-0.1-1-0.6-1.9-1.4-2.5c-0.8-0.6-1.8-0.9-2.8-0.8c-1.3,0.1-2.4,0.9-2.9,2c-0.4,0.7-1.3,1-2,0.7    c-0.7-0.4-1-1.3-0.7-2c1-2,3-3.4,5.3-3.7c1.8-0.2,3.6,0.3,5,1.4c1.4,1.1,2.3,2.7,2.5,4.5c0.4,3.7-2.3,7.1-6,7.5    C79.2,113.5,78.9,113.5,78.7,113.5z"></path><g><path d="M54.2,72.3c-0.8,0-1.5-0.7-1.5-1.5v-5.9c0-0.8,0.7-1.5,1.5-1.5s1.5,0.7,1.5,1.5v5.9C55.7,71.6,55,72.3,54.2,72.3z"></path>
                    <path d="M64,72.3c-0.8,0-1.5-0.7-1.5-1.5v-5.9c0-0.8,0.7-1.5,1.5-1.5s1.5,0.7,1.5,1.5v5.9C65.5,71.6,64.8,72.3,64,72.3z"></path>
                    <path d="M73.8,72.3c-0.8,0-1.5-0.7-1.5-1.5v-5.9c0-0.8,0.7-1.5,1.5-1.5s1.5,0.7,1.5,1.5v5.9C75.3,71.6,74.6,72.3,73.8,72.3z"></path></g><path
                        d="M84.7,79.8H43.3c-0.8,0-1.5-0.7-1.5-1.5s0.7-1.5,1.5-1.5h41.4c0.8,0,1.5,0.7,1.5,1.5S85.5,79.8,84.7,79.8z"></path><path
                        d="M64,90.5c-2.1,0-3.9-1.7-3.9-3.9s1.7-3.9,3.9-3.9s3.9,1.7,3.9,3.9S66.1,90.5,64,90.5z M64,85.7c-0.5,0-0.9,0.4-0.9,0.9    s0.4,0.9,0.9,0.9s0.9-0.4,0.9-0.9S64.5,85.7,64,85.7z"></path><path
                        d="M63.5,61.2c-2.6,0-5.3-1.2-6.4-3.6c-0.1-0.3-1.2-2.6-0.2-4.9c0.4-0.9,1-1.4,1.4-1.8c0.3-0.3,0.4-0.3,0.4-0.5    c0.2-0.5-0.2-1.5-1-2.6l-1.5-2l2.5-0.3c1.5-0.2,4.2-0.2,5.8,1.5c0.4,0.4,0.7,0.9,1,1.5c0.2-0.4,0.3-0.9,0.5-1.3l0.6-2.3l1.8,1.5    c0.9,0.7,1.6,1.6,2.1,2.6c1,1.8,1,3.6,0.9,4.4c-0.1,1.6-0.7,3.1-1.7,4.5c-0.4,0.6-1.6,2.1-3.6,2.8l0,0c0,0,0,0,0,0l0,0    C65.3,61,64.4,61.2,63.5,61.2z M61.4,48.5c0.4,1.1,0.4,2.1,0,3c-0.3,0.9-0.9,1.4-1.3,1.7c-0.3,0.3-0.5,0.4-0.6,0.7    c-0.4,0.9,0,2,0.2,2.4c0.9,1.7,3.6,2.3,5.4,1.6l0,0c1.2-0.4,1.9-1.4,2.2-1.8c0.3-0.3,1-1.4,1.1-2.9c0-0.5,0-1.6-0.6-2.8    c-0.1,0.2-0.2,0.4-0.4,0.6c-0.3,0.5-0.6,0.9-1,1.4L65,54.3l-1-2.3c-0.2-0.4-0.4-0.8-0.6-1.3c-0.7-1.2-1-1.7-1.1-1.8    C62.1,48.8,61.8,48.6,61.4,48.5z"></path></g></g></svg>
        </g>
    </g>
</svg>
